<svg width="1000" height="1000" viewBox="0 0 1000 1000" fill="none" xmlns="http://www.w3.org/2000/svg">
<g clip-path="url(#clip0_101_2)">
<path d="M1000 0H0V1000H1000V0Z" fill="#10A37F"/>
<path opacity="0.17" d="M507.8 886.8C719.325 886.8 890.8 715.325 890.8 503.8C890.8 292.275 719.325 120.8 507.8 120.8C296.275 120.8 124.8 292.275 124.8 503.8C124.8 715.325 296.275 886.8 507.8 886.8Z" fill="#FC8B3F"/>
<path opacity="0.17" d="M500 735.6C630.118 735.6 735.6 630.118 735.6 500C735.6 369.882 630.118 264.4 500 264.4C369.882 264.4 264.4 369.882 264.4 500C264.4 630.118 369.882 735.6 500 735.6Z" fill="#FF9F2C"/>
<path d="M504.2 794C555.286 794 596.7 786.299 596.7 776.8C596.7 767.301 555.286 759.6 504.2 759.6C453.114 759.6 411.7 767.301 411.7 776.8C411.7 786.299 453.114 794 504.2 794Z" fill="#430B48"/>
<path d="M475.2 660.3C451.7 660.3 432.7 677.7 432.7 699.3V700.7C432.7 742.8 464 776.8 502.6 776.8C541.2 776.8 572.5 742.7 572.5 700.7V699.3C572.5 677.8 553.5 660.3 530 660.3H475.2Z" fill="#E0E0E0"/>
<path d="M502.7 687.7C529.928 687.7 552 681.566 552 674C552 666.434 529.928 660.3 502.7 660.3C475.472 660.3 453.4 666.434 453.4 674C453.4 681.566 475.472 687.7 502.7 687.7Z" fill="#CFC3D8"/>
<path d="M502.7 682.9C523.024 682.9 539.5 678.333 539.5 672.7C539.5 667.067 523.024 662.5 502.7 662.5C482.376 662.5 465.9 667.067 465.9 672.7C465.9 678.333 482.376 682.9 502.7 682.9Z" fill="#430B48"/>
<path d="M502.7 744.7C467.8 744.7 438.9 727.9 433.6 691.5C433 694 432.7 696.6 432.7 699.3V700.7C432.7 742.8 464 776.8 502.6 776.8C541.2 776.8 572.5 742.7 572.5 700.7V699.3C572.5 696.6 572.2 694 571.6 691.5C566.5 727.9 537.6 744.7 502.7 744.7Z" fill="#CFC3D8"/>
<path d="M475.2 660.3C451.7 660.3 432.7 677.7 432.7 699.3V700.7C432.7 742.8 464 776.8 502.6 776.8C541.2 776.8 572.5 742.7 572.5 700.7V699.3C572.5 677.8 553.5 660.3 530 660.3H475.2Z" stroke="#430B48" stroke-width="8" stroke-miterlimit="10" stroke-linecap="round" stroke-linejoin="round"/>
<path d="M612.5 285.1H648.5" stroke="#430B48" stroke-width="8" stroke-miterlimit="10" stroke-linecap="round" stroke-linejoin="round"/>
<path d="M664.5 301.1C673.337 301.1 680.5 293.937 680.5 285.1C680.5 276.263 673.337 269.1 664.5 269.1C655.663 269.1 648.5 276.263 648.5 285.1C648.5 293.937 655.663 301.1 664.5 301.1Z" fill="#BFB0CC"/>
<path d="M664.5 301.1C673.337 301.1 680.5 293.937 680.5 285.1C680.5 276.263 673.337 269.1 664.5 269.1C655.663 269.1 648.5 276.263 648.5 285.1C648.5 293.937 655.663 301.1 664.5 301.1Z" stroke="#430B48" stroke-width="8" stroke-miterlimit="10" stroke-linecap="round" stroke-linejoin="round"/>
<path d="M626 522.5C625.1 515 625.4 507.5 626.8 500.1C627.7 496.3 631.8 493.3 635.4 493.5C639.1 493.6 642.9 496.8 643.6 500.7C644.5 508.2 644.2 515.7 642.8 523.1C641.9 526.9 637.8 529.9 634.2 529.7C630.5 529.6 626.6 526.4 626 522.5Z" fill="#4B1151"/>
<path d="M647.3 522.1C644.8 515.2 643.2 507.9 643 500.5C642.9 496.7 646.2 492.9 649.8 492.2C653.4 491.5 657.8 493.7 659.2 497.3C661.9 504.2 663.3 511.5 663.5 518.9C663.6 522.7 660.3 526.5 656.7 527.2C653.2 527.9 648.8 525.7 647.3 522.1Z" fill="#430B48"/>
<path d="M667.6 517C663.6 511 660.4 504.4 658.5 497.4C657.5 493.8 659.8 489.4 663 488C666.4 486.5 671 487.5 673.1 490.6C677.2 496.5 680.3 503.2 682.2 510.2C683.2 513.8 680.9 518.2 677.7 519.6C674.5 521.1 669.8 520 667.6 517Z" fill="#4B1151"/>
<path d="M685.8 507.5C680.6 502.7 676.1 497.1 672.7 490.9C670.9 487.6 672.2 483 674.9 480.9C677.9 478.6 682.4 478.7 685.2 481.1C690.5 485.8 694.9 491.5 698.3 497.7C700.1 501 698.8 505.6 696.1 507.7C693.3 509.9 688.6 509.9 685.8 507.5Z" fill="#4B1151"/>
<path d="M701.3 494.3C695.3 490.9 689.7 486.6 685.1 481.4C682.7 478.7 682.8 474 684.9 471.4C687.3 468.5 691.5 467.6 694.7 469.3C700.8 472.6 706.3 477 710.9 482.2C713.3 484.9 713.2 489.6 711.1 492.2C709 494.9 704.5 496 701.3 494.3Z" fill="#4B1151"/>
<path d="M713.5 477.9C707 476 700.7 473.2 695.1 469.3C692.2 467.3 691.2 462.8 692.6 459.8C694.3 456.4 698 454.6 701.5 455.6C708.1 457.4 714.3 460.3 719.9 464.2C722.8 466.2 723.8 470.7 722.4 473.7C721 476.7 716.9 478.8 713.5 477.9Z" fill="#4B1151"/>
<path d="M721.7 458.9C715 458.6 708.4 457.5 702.2 455.1C699 453.9 697 449.8 697.6 446.6C698.5 442.8 701.6 440.4 705 440.5C711.7 440.6 718.3 441.9 724.5 444.3C727.7 445.5 729.7 449.6 729.1 452.8C728.6 455.9 725.2 458.9 721.7 458.9Z" fill="#4B1151"/>
<path d="M724.5 439.3C718 439.7 711.5 439.1 705.2 437.5C701.9 436.5 699.6 432.9 699.9 429.7C700.4 425.8 703.2 423.4 706.6 423C713.1 422.6 719.6 423.2 725.9 424.8C729.2 425.8 731.5 429.4 731.2 432.6C730.9 435.8 727.9 439 724.5 439.3Z" fill="#4B1151"/>
<path d="M626 522.5C625.1 515 625.4 507.5 626.8 500.1C627.7 496.3 631.8 493.3 635.4 493.5C639.1 493.6 642.9 496.8 643.6 500.7C644.5 508.2 644.2 515.7 642.8 523.1C641.9 526.9 637.8 529.9 634.2 529.7C630.5 529.6 626.6 526.4 626 522.5Z" stroke="#430B48" stroke-width="6" stroke-miterlimit="10" stroke-linecap="round" stroke-linejoin="round"/>
<path d="M647.3 522.1C644.8 515.2 643.2 507.9 643 500.5C642.9 496.7 646.2 492.9 649.8 492.2C653.4 491.5 657.8 493.7 659.2 497.3C661.9 504.2 663.3 511.5 663.5 518.9C663.6 522.7 660.3 526.5 656.7 527.2C653.2 527.9 648.8 525.7 647.3 522.1Z" stroke="#430B48" stroke-width="6" stroke-miterlimit="10" stroke-linecap="round" stroke-linejoin="round"/>
<path d="M667.6 517C663.6 511 660.4 504.4 658.5 497.4C657.5 493.8 659.8 489.4 663 488C666.4 486.5 671 487.5 673.1 490.6C677.2 496.5 680.3 503.2 682.2 510.2C683.2 513.8 680.9 518.2 677.7 519.6C674.5 521.1 669.8 520 667.6 517Z" stroke="#430B48" stroke-width="6" stroke-miterlimit="10" stroke-linecap="round" stroke-linejoin="round"/>
<path d="M685.8 507.5C680.6 502.7 676.1 497.1 672.7 490.9C670.9 487.6 672.2 483 674.9 480.9C677.9 478.6 682.4 478.7 685.2 481.1C690.5 485.8 694.9 491.5 698.3 497.7C700.1 501 698.8 505.6 696.1 507.7C693.3 509.9 688.6 509.9 685.8 507.5Z" stroke="#430B48" stroke-width="6" stroke-miterlimit="10" stroke-linecap="round" stroke-linejoin="round"/>
<path d="M701.3 494.3C695.3 490.9 689.7 486.6 685.1 481.4C682.7 478.7 682.8 474 684.9 471.4C687.3 468.5 691.5 467.6 694.7 469.3C700.8 472.6 706.3 477 710.9 482.2C713.3 484.9 713.2 489.6 711.1 492.2C709 494.9 704.5 496 701.3 494.3Z" stroke="#430B48" stroke-width="6" stroke-miterlimit="10" stroke-linecap="round" stroke-linejoin="round"/>
<path d="M713.5 477.9C707 476 700.7 473.2 695.1 469.3C692.2 467.3 691.2 462.8 692.6 459.8C694.3 456.4 698 454.6 701.5 455.6C708.1 457.4 714.3 460.3 719.9 464.2C722.8 466.2 723.8 470.7 722.4 473.7C721 476.7 716.9 478.8 713.5 477.9Z" stroke="#430B48" stroke-width="6" stroke-miterlimit="10" stroke-linecap="round" stroke-linejoin="round"/>
<path d="M721.7 458.9C715 458.6 708.4 457.5 702.2 455.1C699 453.9 697 449.8 697.6 446.6C698.5 442.8 701.6 440.4 705 440.5C711.7 440.6 718.3 441.9 724.5 444.3C727.7 445.5 729.7 449.6 729.1 452.8C728.6 455.9 725.2 458.9 721.7 458.9Z" stroke="#430B48" stroke-width="6" stroke-miterlimit="10" stroke-linecap="round" stroke-linejoin="round"/>
<path d="M724.5 439.3C718 439.7 711.5 439.1 705.2 437.5C701.9 436.5 699.6 432.9 699.9 429.7C700.4 425.8 703.2 423.4 706.6 423C713.1 422.6 719.6 423.2 725.9 424.8C729.2 425.8 731.5 429.4 731.2 432.6C730.9 435.8 727.9 439 724.5 439.3Z" stroke="#430B48" stroke-width="6" stroke-miterlimit="10" stroke-linecap="round" stroke-linejoin="round"/>
<path d="M726.8 371.7V391.2C726.8 396.5 722.5 400.8 717.2 400.8C711.9 400.8 707.6 396.5 707.6 391.2V378.4H688.3V394.8C688.3 410.8 701.2 423.7 717.2 423.7C733.2 423.7 746.1 410.8 746.1 394.8V371.7H726.8V371.7Z" fill="#CFC3D8"/>
<path d="M711.4 398.9C709.1 397.1 707.6 394.4 707.6 391.3V383C707.6 382.2 707.5 381.3 707.5 380.5C707.5 379.8 707.5 379.2 707.5 378.5H688.3V394.9C688.3 410.9 701.2 423.8 717.2 423.8C722.4 423.8 727.3 422.4 731.5 420C722.7 415.7 715.5 408.2 711.4 398.9Z" fill="#BFB0CC"/>
<path d="M726.8 371.7V391.2C726.8 396.5 722.5 400.8 717.2 400.8C711.9 400.8 707.6 396.5 707.6 391.2V378.4H688.3V394.8C688.3 410.8 701.2 423.7 717.2 423.7C733.2 423.7 746.1 410.8 746.1 394.8V371.7H726.8V371.7Z" stroke="#430B48" stroke-width="8" stroke-miterlimit="10" stroke-linecap="round" stroke-linejoin="round"/>
<path d="M379.4 522.5C380.3 515 380 507.5 378.6 500.1C377.7 496.3 373.6 493.3 370 493.5C366.3 493.6 362.5 496.8 361.8 500.7C360.9 508.2 361.2 515.7 362.6 523.1C363.5 526.9 367.6 529.9 371.2 529.7C374.9 529.6 378.8 526.4 379.4 522.5Z" fill="#4B1151"/>
<path d="M358 522.1C360.5 515.2 362.1 507.9 362.3 500.5C362.4 496.7 359.1 492.9 355.5 492.2C351.9 491.5 347.5 493.7 346.1 497.3C343.4 504.2 342 511.5 341.8 518.9C341.7 522.7 345 526.5 348.6 527.2C352.2 527.9 356.6 525.7 358 522.1Z" fill="#430B48"/>
<path d="M337.8 517C341.8 511 345 504.4 346.9 497.4C347.9 493.8 345.6 489.4 342.4 488C339 486.5 334.4 487.5 332.3 490.6C328.2 496.5 325.1 503.2 323.2 510.2C322.2 513.8 324.5 518.2 327.7 519.6C330.8 521.1 335.6 520 337.8 517Z" fill="#4B1151"/>
<path d="M319.6 507.5C324.8 502.7 329.3 497.1 332.7 490.9C334.5 487.6 333.2 483 330.5 480.9C327.5 478.6 323 478.7 320.2 481.1C314.9 485.8 310.5 491.5 307.1 497.7C305.3 501 306.6 505.6 309.3 507.7C312 509.9 316.8 509.9 319.6 507.5Z" fill="#4B1151"/>
<path d="M304.1 494.3C310.1 490.9 315.7 486.6 320.3 481.4C322.7 478.7 322.6 474 320.5 471.4C318.1 468.5 313.9 467.6 310.7 469.3C304.6 472.6 299.1 477 294.5 482.2C292.1 484.9 292.2 489.6 294.3 492.2C296.4 494.9 300.9 496 304.1 494.3Z" fill="#4B1151"/>
<path d="M291.9 477.9C298.4 476 304.7 473.2 310.3 469.3C313.2 467.3 314.2 462.8 312.8 459.8C311.1 456.4 307.4 454.6 303.9 455.6C297.3 457.4 291.1 460.3 285.5 464.2C282.6 466.2 281.6 470.7 283 473.7C284.4 476.7 288.4 478.8 291.9 477.9Z" fill="#4B1151"/>
<path d="M283.6 458.9C290.3 458.6 296.9 457.5 303.1 455.1C306.3 453.9 308.3 449.8 307.7 446.6C306.8 442.8 303.7 440.4 300.3 440.5C293.6 440.6 287 441.9 280.8 444.3C277.6 445.5 275.6 449.6 276.2 452.8C276.8 455.9 280.2 458.9 283.6 458.9Z" fill="#4B1151"/>
<path d="M280.8 439.3C287.3 439.7 293.8 439.1 300.1 437.5C303.4 436.5 305.7 432.9 305.4 429.7C304.9 425.8 302.1 423.4 298.7 423C292.2 422.6 285.7 423.2 279.4 424.8C276.1 425.8 273.8 429.4 274.1 432.6C274.5 435.8 277.4 439 280.8 439.3Z" fill="#4B1151"/>
<path d="M379.4 522.5C380.3 515 380 507.5 378.6 500.1C377.7 496.3 373.6 493.3 370 493.5C366.3 493.6 362.5 496.8 361.8 500.7C360.9 508.2 361.2 515.7 362.6 523.1C363.5 526.9 367.6 529.9 371.2 529.7C374.9 529.6 378.8 526.4 379.4 522.5Z" stroke="#430B48" stroke-width="6" stroke-miterlimit="10" stroke-linecap="round" stroke-linejoin="round"/>
<path d="M358 522.1C360.5 515.2 362.1 507.9 362.3 500.5C362.4 496.7 359.1 492.9 355.5 492.2C351.9 491.5 347.5 493.7 346.1 497.3C343.4 504.2 342 511.5 341.8 518.9C341.7 522.7 345 526.5 348.6 527.2C352.2 527.9 356.6 525.7 358 522.1Z" stroke="#430B48" stroke-width="6" stroke-miterlimit="10" stroke-linecap="round" stroke-linejoin="round"/>
<path d="M337.8 517C341.8 511 345 504.4 346.9 497.4C347.9 493.8 345.6 489.4 342.4 488C339 486.5 334.4 487.5 332.3 490.6C328.2 496.5 325.1 503.2 323.2 510.2C322.2 513.8 324.5 518.2 327.7 519.6C330.8 521.1 335.6 520 337.8 517Z" stroke="#430B48" stroke-width="6" stroke-miterlimit="10" stroke-linecap="round" stroke-linejoin="round"/>
<path d="M319.6 507.5C324.8 502.7 329.3 497.1 332.7 490.9C334.5 487.6 333.2 483 330.5 480.9C327.5 478.6 323 478.7 320.2 481.1C314.9 485.8 310.5 491.5 307.1 497.7C305.3 501 306.6 505.6 309.3 507.7C312 509.9 316.8 509.9 319.6 507.5Z" stroke="#430B48" stroke-width="6" stroke-miterlimit="10" stroke-linecap="round" stroke-linejoin="round"/>
<path d="M304.1 494.3C310.1 490.9 315.7 486.6 320.3 481.4C322.7 478.7 322.6 474 320.5 471.4C318.1 468.5 313.9 467.6 310.7 469.3C304.6 472.6 299.1 477 294.5 482.2C292.1 484.9 292.2 489.6 294.3 492.2C296.4 494.9 300.9 496 304.1 494.3Z" stroke="#430B48" stroke-width="6" stroke-miterlimit="10" stroke-linecap="round" stroke-linejoin="round"/>
<path d="M291.9 477.9C298.4 476 304.7 473.2 310.3 469.3C313.2 467.3 314.2 462.8 312.8 459.8C311.1 456.4 307.4 454.6 303.9 455.6C297.3 457.4 291.1 460.3 285.5 464.2C282.6 466.2 281.6 470.7 283 473.7C284.4 476.7 288.4 478.8 291.9 477.9Z" stroke="#430B48" stroke-width="6" stroke-miterlimit="10" stroke-linecap="round" stroke-linejoin="round"/>
<path d="M283.6 458.9C290.3 458.6 296.9 457.5 303.1 455.1C306.3 453.9 308.3 449.8 307.7 446.6C306.8 442.8 303.7 440.4 300.3 440.5C293.6 440.6 287 441.9 280.8 444.3C277.6 445.5 275.6 449.6 276.2 452.8C276.8 455.9 280.2 458.9 283.6 458.9Z" stroke="#430B48" stroke-width="6" stroke-miterlimit="10" stroke-linecap="round" stroke-linejoin="round"/>
<path d="M280.8 439.3C287.3 439.7 293.8 439.1 300.1 437.5C303.4 436.5 305.7 432.9 305.4 429.7C304.9 425.8 302.1 423.4 298.7 423C292.2 422.6 285.7 423.2 279.4 424.8C276.1 425.8 273.8 429.4 274.1 432.6C274.5 435.8 277.4 439 280.8 439.3Z" stroke="#430B48" stroke-width="6" stroke-miterlimit="10" stroke-linecap="round" stroke-linejoin="round"/>
<path d="M278.5 371.7V391.2C278.5 396.5 282.8 400.8 288.1 400.8C293.4 400.8 297.7 396.5 297.7 391.2V378.4H317V394.8C317 410.8 304.1 423.7 288.1 423.7C272.1 423.7 259.2 410.8 259.2 394.8V371.7H278.5V371.7Z" fill="#CFC3D8"/>
<path d="M294 398.9C296.3 397.1 297.8 394.4 297.8 391.3V383C297.8 382.2 297.9 381.3 297.9 380.5C297.9 379.8 297.9 379.2 297.9 378.5H317.1V394.9C317.1 410.9 304.2 423.8 288.2 423.8C283 423.8 278.1 422.4 273.9 420C282.7 415.7 289.9 408.2 294 398.9Z" fill="#BFB0CC"/>
<path d="M278.5 371.7V391.2C278.5 396.5 282.8 400.8 288.1 400.8C293.4 400.8 297.7 396.5 297.7 391.2V378.4H317V394.8C317 410.8 304.1 423.7 288.1 423.7C272.1 423.7 259.2 410.8 259.2 394.8V371.7H278.5V371.7Z" stroke="#430B48" stroke-width="8" stroke-miterlimit="10" stroke-linecap="round" stroke-linejoin="round"/>
<path d="M608.7 326.1H592.7V244.1H608.7C613.1 244.1 616.7 247.7 616.7 252.1V318.1C616.7 322.6 613.1 326.1 608.7 326.1Z" fill="#BFB0CC"/>
<path d="M608.7 244.1H592.7V255.1H608.7C613.1 255.1 616.7 258.7 616.7 263.1V252.1C616.7 247.7 613.1 244.1 608.7 244.1Z" fill="white"/>
<path d="M608.7 326.1H592.7V244.1H608.7C613.1 244.1 616.7 247.7 616.7 252.1V318.1C616.7 322.6 613.1 326.1 608.7 326.1Z" stroke="#430B48" stroke-width="8" stroke-miterlimit="10" stroke-linecap="round" stroke-linejoin="round"/>
<path d="M392.9 285.1H356.9" stroke="#430B48" stroke-width="8" stroke-miterlimit="10" stroke-linecap="round" stroke-linejoin="round"/>
<path d="M340.9 301.1C349.737 301.1 356.9 293.937 356.9 285.1C356.9 276.263 349.737 269.1 340.9 269.1C332.063 269.1 324.9 276.263 324.9 285.1C324.9 293.937 332.063 301.1 340.9 301.1Z" fill="#BFB0CC"/>
<path d="M340.9 301.1C349.737 301.1 356.9 293.937 356.9 285.1C356.9 276.263 349.737 269.1 340.9 269.1C332.063 269.1 324.9 276.263 324.9 285.1C324.9 293.937 332.063 301.1 340.9 301.1Z" stroke="#430B48" stroke-width="8" stroke-miterlimit="10" stroke-linecap="round" stroke-linejoin="round"/>
<path d="M396.7 326.1H412.7V244.1H396.7C392.3 244.1 388.7 247.7 388.7 252.1V318.1C388.7 322.6 392.3 326.1 396.7 326.1Z" fill="#BFB0CC"/>
<path d="M396.7 244.1C392.3 244.1 388.7 247.7 388.7 252.1V263.1C388.7 258.7 392.3 255.1 396.7 255.1H412.7V244.1H396.7V244.1Z" fill="#E6EEF1"/>
<path d="M396.7 326.1H412.7V244.1H396.7C392.3 244.1 388.7 247.7 388.7 252.1V318.1C388.7 322.6 392.3 326.1 396.7 326.1Z" stroke="#430B48" stroke-width="8" stroke-miterlimit="10" stroke-linecap="round" stroke-linejoin="round"/>
<path d="M608.7 326.1H592.7V244.1H608.7C613.1 244.1 616.7 247.7 616.7 252.1V318.1C616.7 322.6 613.1 326.1 608.7 326.1Z" stroke="#430B48" stroke-width="8" stroke-miterlimit="10" stroke-linecap="round" stroke-linejoin="round"/>
<path d="M396.7 326.1H412.7V244.1H396.7C392.3 244.1 388.7 247.7 388.7 252.1V318.1C388.7 322.6 392.3 326.1 396.7 326.1Z" stroke="#430B48" stroke-width="8" stroke-miterlimit="10" stroke-linecap="round" stroke-linejoin="round"/>
<path d="M556.7 379.1H448.7C426.6 379.1 408.7 361.2 408.7 339.1V231.1C408.7 209 426.6 191.1 448.7 191.1H556.7C578.8 191.1 596.7 209 596.7 231.1V339.1C596.7 361.2 578.8 379.1 556.7 379.1Z" fill="#E0E0E0"/>
<path d="M556.7 379.1H448.7C426.6 379.1 408.7 361.2 408.7 339.1V231.1C408.7 209 426.6 191.1 448.7 191.1H556.7C578.8 191.1 596.7 209 596.7 231.1V339.1C596.7 361.2 578.8 379.1 556.7 379.1Z" fill="#E0E0E0"/>
<path d="M556.7 379.1H448.7C426.6 379.1 408.7 361.2 408.7 339.1V231.1C408.7 209 426.6 191.1 448.7 191.1H556.7C578.8 191.1 596.7 209 596.7 231.1V339.1C596.7 361.2 578.8 379.1 556.7 379.1Z" fill="#E0E0E0"/>
<path d="M556.7 191.1H448.7C426.6 191.1 408.7 209 408.7 231.1V241C408.7 218.9 426.6 201 448.7 201H556.7C578.8 201 596.7 218.9 596.7 241V231.1C596.7 209 578.8 191.1 556.7 191.1Z" fill="white"/>
<path d="M556.7 362.7H448.7C426.6 362.7 408.7 349.7 408.7 327.6V339.1C408.7 361.2 426.6 379.1 448.7 379.1H556.7C578.8 379.1 596.7 361.2 596.7 339.1V327.6C596.7 349.8 578.8 362.7 556.7 362.7Z" fill="#BFB0CC"/>
<path d="M556.7 379.1H448.7C426.6 379.1 408.7 361.2 408.7 339.1V231.1C408.7 209 426.6 191.1 448.7 191.1H556.7C578.8 191.1 596.7 209 596.7 231.1V339.1C596.7 361.2 578.8 379.1 556.7 379.1Z" stroke="#430B48" stroke-width="8" stroke-miterlimit="10" stroke-linecap="round" stroke-linejoin="round"/>
<path d="M502.7 213.1C524.791 213.1 542.7 203.25 542.7 191.1C542.7 178.95 524.791 169.1 502.7 169.1C480.609 169.1 462.7 178.95 462.7 191.1C462.7 203.25 480.609 213.1 502.7 213.1Z" fill="#FEA74A"/>
<path d="M502.7 213.1C524.791 213.1 542.7 203.25 542.7 191.1C542.7 178.95 524.791 169.1 502.7 169.1C480.609 169.1 462.7 178.95 462.7 191.1C462.7 203.25 480.609 213.1 502.7 213.1Z" fill="#BBC6CC"/>
<path d="M502.7 210C524.791 210 542.7 201.538 542.7 191.1C542.7 180.662 524.791 172.2 502.7 172.2C480.609 172.2 462.7 180.662 462.7 191.1C462.7 201.538 480.609 210 502.7 210Z" fill="#E0E0E0"/>
<path d="M541.4 186.6C538.4 197.1 521.9 200.1 501.9 200.1C483.3 200.1 467.7 198.2 463.2 188.8C462.9 189.9 462.7 187 462.7 188.2C462.7 200.3 480.6 210.1 502.7 210.1C524.8 210.1 542.7 200.3 542.7 188.2C542.7 186.2 542.2 188.3 541.4 186.6Z" fill="#BFB0CC"/>
<path d="M502.7 210C524.791 210 542.7 201.538 542.7 191.1C542.7 180.662 524.791 172.2 502.7 172.2C480.609 172.2 462.7 180.662 462.7 191.1C462.7 201.538 480.609 210 502.7 210Z" stroke="#430B48" stroke-width="8" stroke-miterlimit="10" stroke-linecap="round" stroke-linejoin="round"/>
<path d="M502.7 326.4C525.951 326.4 544.8 307.551 544.8 284.3C544.8 261.049 525.951 242.2 502.7 242.2C479.449 242.2 460.6 261.049 460.6 284.3C460.6 307.551 479.449 326.4 502.7 326.4Z" fill="#CFC3D8" stroke="#CFC3D8" stroke-width="8" stroke-miterlimit="10" stroke-linecap="round" stroke-linejoin="round"/>
<path d="M502.7 319.7C525.951 319.7 544.8 300.851 544.8 277.6C544.8 254.349 525.951 235.5 502.7 235.5C479.449 235.5 460.6 254.349 460.6 277.6C460.6 300.851 479.449 319.7 502.7 319.7Z" fill="#E6EEF1"/>
<path d="M502.7 319.7C525.951 319.7 544.8 300.851 544.8 277.6C544.8 254.349 525.951 235.5 502.7 235.5C479.449 235.5 460.6 254.349 460.6 277.6C460.6 300.851 479.449 319.7 502.7 319.7Z" stroke="#430B48" stroke-width="8" stroke-miterlimit="10" stroke-linecap="round" stroke-linejoin="round"/>
<path d="M501.9 307.9C513.443 307.9 522.8 298.543 522.8 287C522.8 275.457 513.443 266.1 501.9 266.1C490.357 266.1 481 275.457 481 287C481 298.543 490.357 307.9 501.9 307.9Z" fill="#23B5E2"/>
<path d="M501.9 307.9C513.443 307.9 522.8 298.543 522.8 287C522.8 275.457 513.443 266.1 501.9 266.1C490.357 266.1 481 275.457 481 287C481 298.543 490.357 307.9 501.9 307.9Z" stroke="#430B48" stroke-width="8" stroke-miterlimit="10" stroke-linecap="round" stroke-linejoin="round"/>
<path d="M501.9 298.1C508.03 298.1 513 293.13 513 287C513 280.87 508.03 275.9 501.9 275.9C495.77 275.9 490.8 280.87 490.8 287C490.8 293.13 495.77 298.1 501.9 298.1Z" fill="#430B48"/>
<path d="M546.9 346.7V354.7" stroke="#BBC6CC" stroke-width="8" stroke-miterlimit="10" stroke-linecap="round" stroke-linejoin="round"/>
<path d="M532.1 345.1V356.4" stroke="#BBC6CC" stroke-width="8" stroke-miterlimit="10" stroke-linecap="round" stroke-linejoin="round"/>
<path d="M517.4 343.4V358.1" stroke="#BBC6CC" stroke-width="8" stroke-miterlimit="10" stroke-linecap="round" stroke-linejoin="round"/>
<path d="M502.7 341.7V359.7" stroke="#BBC6CC" stroke-width="8" stroke-miterlimit="10" stroke-linecap="round" stroke-linejoin="round"/>
<path d="M458.5 346.7V354.7" stroke="#BBC6CC" stroke-width="8" stroke-miterlimit="10" stroke-linecap="round" stroke-linejoin="round"/>
<path d="M473.2 345.1V356.4" stroke="#BBC6CC" stroke-width="8" stroke-miterlimit="10" stroke-linecap="round" stroke-linejoin="round"/>
<path d="M488 343.4V358.1" stroke="#BBC6CC" stroke-width="8" stroke-miterlimit="10" stroke-linecap="round" stroke-linejoin="round"/>
<path d="M546.9 343.7V351.7" stroke="#430B48" stroke-width="8" stroke-miterlimit="10" stroke-linecap="round" stroke-linejoin="round"/>
<path d="M532.1 342.1V353.4" stroke="#430B48" stroke-width="8" stroke-miterlimit="10" stroke-linecap="round" stroke-linejoin="round"/>
<path d="M517.4 340.4V355.1" stroke="#430B48" stroke-width="8" stroke-miterlimit="10" stroke-linecap="round" stroke-linejoin="round"/>
<path d="M502.7 338.7V356.7" stroke="#430B48" stroke-width="8" stroke-miterlimit="10" stroke-linecap="round" stroke-linejoin="round"/>
<path d="M458.5 343.7V351.7" stroke="#430B48" stroke-width="8" stroke-miterlimit="10" stroke-linecap="round" stroke-linejoin="round"/>
<path d="M473.2 342.1V353.4" stroke="#430B48" stroke-width="8" stroke-miterlimit="10" stroke-linecap="round" stroke-linejoin="round"/>
<path d="M488 340.4V355.1" stroke="#430B48" stroke-width="8" stroke-miterlimit="10" stroke-linecap="round" stroke-linejoin="round"/>
<path d="M518.7 379.1H486.7V423.1H518.7V379.1Z" fill="#CFC3D8"/>
<path d="M518.7 379.1H486.7V395.5H518.7V379.1Z" fill="#430B48"/>
<path d="M518.7 379.1H486.7V423.1H518.7V379.1Z" stroke="#430B48" stroke-width="8" stroke-miterlimit="10" stroke-linecap="round" stroke-linejoin="round"/>
<path d="M638.3 530.2C619.9 580.2 588.9 624.1 549.2 658.1C522.5 681 482.9 681 456.2 658.1C416.5 624.1 385.5 580.2 367.1 530.2C352.6 490.9 374.4 447.8 414.5 435.9C442.4 427.6 472 423.1 502.7 423.1C533.4 423.1 562.9 427.6 590.9 435.9C631 447.8 652.8 490.9 638.3 530.2Z" fill="#E0E0E0"/>
<path d="M638.3 530.2C619.9 580.2 588.9 624.1 549.2 658.1C522.5 681 482.9 681 456.2 658.1C416.5 624.1 385.5 580.2 367.1 530.2C352.6 490.9 374.4 447.8 414.5 435.9C442.4 427.6 472 423.1 502.7 423.1C533.4 423.1 562.9 427.6 590.9 435.9C631 447.8 652.8 490.9 638.3 530.2Z" fill="#E0E0E0"/>
<path d="M414.5 443.9C442.4 435.6 472 431.1 502.7 431.1C533.4 431.1 562.9 435.6 590.9 443.9C621.2 452.9 641 479.6 642.7 509.1C644.5 476.6 623.9 445.7 590.9 435.9C563 427.6 533.4 423.1 502.7 423.1C472 423.1 442.5 427.6 414.5 435.9C381.5 445.7 360.9 476.6 362.7 509.1C364.4 479.7 384.2 452.9 414.5 443.9Z" fill="white"/>
<path d="M551.3 624C523.4 646.9 481.9 646.9 454 624C413.8 591.1 382.2 549 362.7 501.1C362.2 510.7 363.5 520.6 367.1 530.2C385.5 580.2 416.5 624.1 456.2 658.1C482.9 681 522.5 681 549.2 658.1C588.9 624.1 619.9 580.2 638.3 530.2C641.9 520.6 643.2 510.7 642.7 501.1C623.2 549 591.5 591.1 551.3 624Z" fill="#CFC3D8"/>
<path d="M638.3 530.2C619.9 580.2 588.9 624.1 549.2 658.1C522.5 681 482.9 681 456.2 658.1C416.5 624.1 385.5 580.2 367.1 530.2C352.6 490.9 374.4 447.8 414.5 435.9C442.4 427.6 472 423.1 502.7 423.1C533.4 423.1 562.9 427.6 590.9 435.9C631 447.8 652.8 490.9 638.3 530.2Z" stroke="#430B48" stroke-width="8" stroke-miterlimit="10" stroke-linecap="round" stroke-linejoin="round"/>
<path d="M547 553H458.3C451.9 553 446.6 547.8 446.6 541.3V500.6C446.6 494.2 451.8 488.9 458.3 488.9H547C553.4 488.9 558.7 494.1 558.7 500.6V541.3C558.7 547.8 553.5 553 547 553Z" fill="url(#paint0_linear_101_2)"/>
<path d="M446.7 535L460.8 510.8L472.2 544.6L488.3 507.9L500.8 534.3L509.8 500.3L526.2 544.6L540.9 508.4L558.7 534.3" stroke="#3A3A3A" stroke-width="4" stroke-miterlimit="10" stroke-linecap="round" stroke-linejoin="round"/>
<path opacity="0.3" d="M548.6 509.1H456.7C451.1 509.1 446.6 504.6 446.6 499C446.6 493.4 451.1 488.9 456.7 488.9H548.6C554.2 488.9 558.7 493.4 558.7 499C558.7 504.6 554.2 509.1 548.6 509.1Z" fill="white"/>
<path d="M547 553H458.3C451.9 553 446.6 547.8 446.6 541.3V500.6C446.6 494.2 451.8 488.9 458.3 488.9H547C553.4 488.9 558.7 494.1 558.7 500.6V541.3C558.7 547.8 553.5 553 547 553Z" stroke="#430B48" stroke-width="6" stroke-miterlimit="10" stroke-linecap="round" stroke-linejoin="round"/>
<path d="M502.7 191.1C510.156 191.1 516.2 188.593 516.2 185.5C516.2 182.407 510.156 179.9 502.7 179.9C495.244 179.9 489.2 182.407 489.2 185.5C489.2 188.593 495.244 191.1 502.7 191.1Z" fill="white"/>
<path d="M501.4 284C504.879 284 507.7 281.806 507.7 279.1C507.7 276.394 504.879 274.2 501.4 274.2C497.921 274.2 495.1 276.394 495.1 279.1C495.1 281.806 497.921 284 501.4 284Z" fill="#E6EEF1"/>
<path d="M666.1 284.1C668.972 284.1 671.3 282.309 671.3 280.1C671.3 277.891 668.972 276.1 666.1 276.1C663.228 276.1 660.9 277.891 660.9 280.1C660.9 282.309 663.228 284.1 666.1 284.1Z" fill="white"/>
<path d="M339.3 284.1C342.172 284.1 344.5 282.309 344.5 280.1C344.5 277.891 342.172 276.1 339.3 276.1C336.428 276.1 334.1 277.891 334.1 280.1C334.1 282.309 336.428 284.1 339.3 284.1Z" fill="white"/>
<path d="M503.3 587.4C509.762 587.4 515 582.162 515 575.7C515 569.238 509.762 564 503.3 564C496.838 564 491.6 569.238 491.6 575.7C491.6 582.162 496.838 587.4 503.3 587.4Z" fill="#CFC3D8"/>
<path d="M503.3 587.4C509.762 587.4 515 582.162 515 575.7C515 569.238 509.762 564 503.3 564C496.838 564 491.6 569.238 491.6 575.7C491.6 582.162 496.838 587.4 503.3 587.4Z" stroke="#430B48" stroke-width="4" stroke-miterlimit="10" stroke-linecap="round" stroke-linejoin="round"/>
<path d="M509.8 573.3L508.5 571.1C508.3 570.8 507.9 570.6 507.5 570.8C506.4 571.4 505.1 570.6 505.1 569.4C505.1 569 504.8 568.7 504.4 568.7H501.9C501.5 568.7 501.2 569 501.2 569.4C501.2 570.6 499.9 571.4 498.8 570.8C498.5 570.6 498 570.7 497.8 571.1L496.5 573.3C496.3 573.6 496.4 574.1 496.8 574.3C497.9 574.9 497.9 576.4 496.8 577C496.5 577.2 496.3 577.6 496.5 578L497.8 580.2C498 580.5 498.4 580.7 498.8 580.5C499.9 579.9 501.2 580.7 501.2 581.9C501.2 582.3 501.5 582.6 501.9 582.6H504.4C504.8 582.6 505.1 582.3 505.1 581.9C505.1 580.7 506.4 579.9 507.5 580.5C507.8 580.7 508.3 580.6 508.5 580.2L509.8 578C510 577.7 509.9 577.2 509.5 577C508.4 576.4 508.4 574.9 509.5 574.3C509.9 574.1 510 573.7 509.8 573.3Z" fill="#430B48"/>
</g>
<defs>
<linearGradient id="paint0_linear_101_2" x1="502.686" y1="552.985" x2="502.686" y2="488.985" gradientUnits="userSpaceOnUse">
<stop stop-color="#57AA63"/>
<stop offset="1" stop-color="#9AA642"/>
</linearGradient>
<clipPath id="clip0_101_2">
<rect width="1000" height="1000" fill="white"/>
</clipPath>
</defs>
</svg>
